<svg xmlns="http://www.w3.org/2000/svg" viewBox="0 0 160 66"><defs><path id="a" d="m16.5 9.5.5 4v.4q0 .2.2.3l.7-.1 2.3 1.9q.4 3.4-.1 5.3-.6.1-1.6.1-.9.1-2 .2t-2.1.2q-1.1.1-2.1.3-.9.1-2.3.5t-3.5.8l-2.3-1.5q.7-1.8 1.3-3.1t1-2.8l-1.4-.8q0-1.6-.1-2.1-.1-.6-.3-1.5t-.9-2.1L7.6 9q.1-1.7.4-3.2.4-1.5 1.2-2.7T11 1.3q1.1-.8 2.5-1 2.4-.3 4.2.3 1.7.5 2.7 1.5-.6.8-.9 1.7t-.4 1.9q-.2 1-.2 2.1-.1 1-.2 2.3-.8-1-1.3-1.6t-.9-.8q-.3-.2-.5-.3t-.2-.1q-.2 0-.3.1t-.1.3v.2zm.8 8.7-.3-2.7-6.7 1.3q0-.6.1-1.4.1-.9.2-2.1.9.2 1.5.1l1.7-.2-.4-3.8q-.2.2-.3.2h-.4l-1.5.2q.1-1.4.3-2.4t.5-1.6q.3-.7.7-1t1.3-.4q.6-.1.9.1t.6.7q0-1.1.3-2t.8-1.5q-.9-.1-1.6-.2-.6-.1-1.2 0-1.2.1-2.1.9t-1.6 1.8q-.6 1.1-1 2.6-.3 1.5-.4 3.2l-2.9.4q.2.2.3.7.1.6.2 1.5l.1.9q.3 0 .8-.2l1.2-.3-.4 1.6q-.2.9-.3 1.7-.3.9-.5 1.7-.3.9-.6 1.7 1.4-.3 2.3-.5t1.4-.3l4-.5q1.4-.2 2-.1.8.1 1 .3z"/></defs><g transform="scale(2.75) translate(-2 0)"><use href="#a" fill="#a27b35" transform="translate(.2 .3)"/><use href="#a" fill="#fccd3f"/></g><g transform="translate(60 9)"><path d="m91.7 1.6-4 6.8-1.3-6.8-7.9 1 4.4 11.5-.1 9.6h7.4l.4-9.8L99.1 2ZM70.8 1l-.3 10.5L65.1.4l-7.7.4-.6 21.9h7l.6-11.5 4.4 11.3 8.1-.8L78 .7ZM48.5 1l-.3 10.5L42.8.4 35 .8l-.6 21.9h7l.6-11.5 4.4 11.3 8.1-.8 1.1-21ZM19.8.7l-.5 22.4 13.4-.3q0-1.8.1-3.4.2-1.6.3-3.4h-6.7l.1-2.3 4.6-.1.4-4.8h-4.6l.1-2 6.6-.4q.2-1.5.3-2.9 0-1.4.1-2.9Zm-8.2 8q0 .6-.3 1.1-.2.5-.6.9t-.9.5q-.6.1-1.1.1h-.8l.3-4.8q.2-.1.6-.1h.6q1 0 1.6.6t.6 1.6Zm7-.5q0-1.4-.4-2.5-.5-1.1-1.1-2t-1.6-1.5q-.9-.6-2-1-1-.5-2.3-.6Q10.1.3 8.8.3 6.6.3 4.6.6l-4 .6q-.1 2-.1 3.9t0 3.8v14.2h7v-7.3q1.2 0 2.5-.1 1.2-.1 2.5-.5 1.2-.4 2.3-1t1.9-1.5 1.3-2 .5-2.6Z"/><path transform="translate(0 24)" d="m16.7 15.2q0 2.1-.7 3.7-.7 1.6-2 2.6-1.3 1.1-3 1.6-1.7.5-3.7.5-.8 0-1.7-.2-.9-.2-1.8-.5-.9-.3-1.8-.7-.9-.4-1.5-.7l.7-6.4q1.3.8 2.9 1.2 1.6.4 3.2.4.3 0 .7 0 .4 0 .8-.1.4-.1.7-.4.3-.2.3-.7 0-.3-.2-.5-.2-.2-.5-.3-.3-.1-.7-.2-.4-.1-.7-.1-.4 0-.7 0-.3 0-.5 0-1.3 0-2.4-.5-1.1-.5-1.9-1.3-.8-.8-1.2-2-.4-1.1-.4-2.5 0-1.8.7-3.3.7-1.5 2-2.5 1.2-1 2.8-1.6 1.6-.5 3.3-.5.8 0 1.6.1.8 0 1.6.2.8.1 1.6.4.8.2 1.4.5l-.6 6.3q-1.1-.4-2.2-.6-1.1-.2-2.2-.2-.2 0-.5 0-.3 0-.7 0-.3 0-.7.1-.4.1-.6.2-.3.1-.4.3-.2.2-.2.5 0 .3.2.6.2.2.6.3.4.1.8.2.5 0 .9.1.4 0 .8 0 .4 0 .6 0 1.2.1 2.2.5 1 .4 1.7 1.2.7.7 1.1 1.8.4 1 .4 2.3zm20.3 6.9-7.7 1-.9-3.5h-3.5l-.8 3.5-7.9-.8 6.2-20.6 8.6-.4zm-9.2-7.3-1.2-5.4-1.1 5.4zm26.8-13.1-5.7 21.6-7.7.4-7-21.8 7.3-.7 3 12.7 2.9-12.7zm15.2-.6q-.1 1.5-.2 2.9-.1 1.4-.2 2.9l-6.6.3-.2 2h4.6l-.3 4.8-4.7.2-.2 2.3h3.8 2.7q-.1 1.7-.2 3.4-.1 1.7-.2 3.4l-13.4.3.5-22.4zm18.7 7.4q0 1.2-.2 2.2-.2 1-.7 1.8-.4.8-1.2 1.5-.7.7-1.7 1.3l3.7 6.6-7 1.4-2.4-6.6-1.9.1-.3 6.4h-6.7q.1-3.5.1-7 .1-3.5.2-7 0-1.8.1-3.5 0-1.8.1-3.5 1.1-.4 2.1-.7 1.1-.3 2.1-.4 1.1-.2 2.2-.2 1.1-.1 2.2-.1 1.8 0 3.4.5 1.7.5 2.9 1.5 1.3 1 2 2.4.8 1.5.8 3.4zm-6.9.5q0-.7-.2-1.2-.2-.5-.5-.9-.3-.4-.9-.6-.5-.2-1.2-.2-.3 0-.6 0-.3 0-.6.1l-.2 5.8h.4q.7 0 1.3-.2.7-.2 1.2-.5.6-.4.9-.9.4-.6.4-1.3z"/></g></svg>